:SAMPLES-PER-SECOND 30
:FULLY-SPECIFIED
:DEGREES
193
root  46.8158 38.1434 -29.9415 2.30199 33.8141 4.85091
RightUpLeg  -30.4629 1.40577 -18.7169
RightLeg  54.5506 -1.95318 -3.38774
RightFoot  5.34753 -0.3801 2.89939
RightToes  0.00048216 0.542163 -0.142577
Spine  39.3991 -4.44254 2.19216
Spine1  13.2195 -5.94101 6.20432
HEad  -10.3296 9.55499 -10.5188
LeftShoulder1  9.88667 -19.3421 -37.1088
LeftArm  -13.8235 -56.8796 -25.2228
LeftForeArm  4.13432 -24.0541 -4.92861
LeftHand  -0.25398 0.0180481 5.50724
RightShoulder  4.40491 11.3266 23.5042
RightArm  -10.6484 30.4807 39.1553
RightForeArm  -25.6644 55.1316 18.1773
RightHand  -3.53454 11.1199 -24.9284
LeftUpLeg  -25.6299 38.4948 -4.5253
LeftLeg  25.561 4.27709 2.57204
LeftFoot  2.33329 -0.640629 5.21308
LeftToes  1.06244e-005 4.65854e-005 -8.18505e-006
194
root  47.9662 38.5442 -30.2182 3.36021 31.8047 4.05963
RightUpLeg  -32.2629 -3.53578 -13.3252
RightLeg  49.2725 -2.05494 -2.87642
RightFoot  1.66502 -0.50302 4.48428
RightToes  0.00048216 0.542163 -0.142577
Spine  40.7768 -4.4208 3.06773
Spine1  13.5449 -5.55708 6.3171
HEad  -11.8771 9.58173 -11.5927
LeftShoulder1  9.90062 -19.3693 -37.1176
LeftArm  -19.3221 -56.8444 -22.5585
LeftForeArm  5.61694 -24.7485 -5.00462
LeftHand  -0.25398 0.0180481 5.50724
RightShoulder  4.26331 11.3136 22.5218
RightArm  -9.95785 34.7969 40.5312
RightForeArm  -25.7649 51.977 16.1773
RightHand  -3.39049 11.2432 -23.793
LeftUpLeg  -25.9454 40.0433 -6.33562
LeftLeg  23.9969 4.50168 2.53742
LeftFoot  1.80718 -0.672151 5.7318
LeftToes  1.06244e-005 4.65854e-005 -8.18505e-006
195
root  49.0106 38.9276 -30.3921 4.75555 29.9175 3.55688
RightUpLeg  -33.0369 -9.26809 -6.84043
RightLeg  40.8347 -4.1209 -4.01982
RightFoot  -0.542215 -0.487672 5.11052
RightToes  0.00048216 0.542163 -0.142577
Spine  41.8541 -4.41563 3.69636
Spine1  13.8049 -5.19094 6.04525
HEad  -13.2038 9.63552 -12.0978
LeftShoulder1  9.8512 -19.4818 -36.702
LeftArm  -24.0313 -56.4075 -19.5051
LeftForeArm  6.36731 -25.3197 -5.09199
LeftHand  -0.25398 0.0180481 5.50724
RightShoulder  4.16661 11.2507 21.9573
RightArm  -9.00862 38.5857 42.1982
RightForeArm  -25.4546 49.3909 14.7485
RightHand  -3.31055 11.3894 -23.0699
LeftUpLeg  -26.2713 42.5745 -8.77353
LeftLeg  21.5032 3.98473 2.0968
LeftFoot  0.854864 -0.651617 6.04454
LeftToes  1.06244e-005 4.65854e-005 -8.18505e-006
196
root  49.9683 39.1942 -30.4761 6.49576 28.431 3.50922
RightUpLeg  -33.3808 -17.154 0.561743
RightLeg  30.7001 -6.4108 -4.44744
RightFoot  -1.69582 -0.542713 6.28685
RightToes  0.00048216 0.542163 -0.142577
Spine  42.4297 -4.61694 4.06086
Spine1  13.9922 -5.00194 5.25117
HEad  -14.1493 9.5936 -11.9807
LeftShoulder1  9.79198 -19.6571 -36.1348
LeftArm  -27.9107 -55.545 -16.2525
LeftForeArm  6.39892 -25.6099 -5.15528
LeftHand  -0.25398 0.0180481 5.50724
RightShoulder  4.13709 11.3317 21.5816
RightArm  -7.64304 41.4106 44.0365
RightForeArm  -25.5455 47.7012 13.925
RightHand  -3.56523 12.0753 -23.8232
LeftUpLeg  -26.3362 43.9625 -11.1019
LeftLeg  18.7884 4.26599 1.29313
LeftFoot  0.0224408 -0.647171 6.49726
LeftToes  1.06244e-005 4.65854e-005 -8.18505e-006
197
root  50.8256 39.2524 -30.4366 8.48169 27.3697 4.45473
RightUpLeg  -33.6633 -25.7873 7.57248
RightLeg  21.299 -5.26038 -2.25779
RightFoot  -1.68414 -0.665937 7.71961
RightToes  0.00048216 0.542163 -0.142577
Spine  42.6008 -4.65263 3.40328
Spine1  14.236 -5.07498 4.56079
HEad  -14.7284 9.35828 -11.4218
LeftShoulder1  9.72657 -19.8734 -35.4755
LeftArm  -31.283 -54.3596 -13.6492
LeftForeArm  6.3006 -25.7034 -5.18145
LeftHand  -0.25398 0.0180481 5.50724
RightShoulder  4.07113 11.4418 20.8901
RightArm  -6.0255 43.269 46.3938
RightForeArm  -25.752 46.5454 13.4039
RightHand  -4.0268 13.0969 -25.3516
LeftUpLeg  -25.5623 42.195 -12.1361
LeftLeg  17.5733 7.10299 0.247203
LeftFoot  -1.05191 -0.628817 7.05389
LeftToes  1.06244e-005 4.65854e-005 -8.18505e-006
198
root  51.5693 39.1574 -30.3207 10.0712 26.7444 6.26018
RightUpLeg  -32.9037 -28.1946 9.42734
RightLeg  16.0959 -5.26428 0.330775
RightFoot  -0.197625 -0.345531 3.66787
RightToes  0.00048216 0.542163 -0.142577
Spine  43.1142 -4.47508 2.21773
Spine1  14.355 -5.37709 4.27937
HEad  -15.0436 8.62931 -10.5625
LeftShoulder1  9.66274 -20.1322 -34.7585
LeftArm  -33.8127 -53.3471 -11.9547
LeftForeArm  6.16969 -25.4799 -5.13833
LeftHand  -0.25398 0.0180481 5.50724
RightShoulder  3.87872 11.2732 19.8266
RightArm  -4.4945 44.2483 49.4226
RightForeArm  -25.3324 45.6175 12.9732
RightHand  -4.42611 14.023 -26.4777
LeftUpLeg  -26.7996 44.1323 -16.1687
LeftLeg  18.2858 5.15694 0.39901
LeftFoot  -2.81904 -0.511738 7.05719
LeftToes  1.06244e-005 4.65854e-005 -8.18505e-006
199
root  52.2152 38.9791 -30.2325 10.9419 26.7718 8.05341
RightUpLeg  -31.7653 -23.7209 5.99972
RightLeg  16.2185 -9.35141 0.949785
RightFoot  0.860677 0.683342 -6.43114
RightToes  0.00048216 0.542163 -0.142577
Spine  44.3871 -4.58243 1.96521
Spine1  14.1293 -5.69375 3.89161
HEad  -15.4309 7.03426 -9.48399
LeftShoulder1  9.65981 -20.425 -34.248
LeftArm  -35.2819 -53.1811 -10.6344
LeftForeArm  5.84974 -24.7655 -4.99633
LeftHand  -0.25398 0.0180481 5.50724
RightShoulder  3.63657 10.9046 18.7457
RightArm  -3.58457 44.5233 52.0784
RightForeArm  -24.5728 45.0624 12.698
RightHand  -4.71916 14.7978 -27.1081
LeftUpLeg  -29.2344 46.0964 -20.2472
LeftLeg  21.8152 2.56644 1.67933
LeftFoot  -4.17724 -0.317263 5.41824
LeftToes  1.06244e-005 4.65854e-005 -8.18505e-006
200
root  52.8147 38.722 -30.2105 11.4259 27.2976 8.94884
RightUpLeg  -34.3186 -25.2154 6.92129
RightLeg  19.7369 -6.69865 -1.09939
RightFoot  0.234507 1.4617 -14.32
RightToes  0.00048216 0.542163 -0.142577
Spine  45.7977 -5.23233 3.16803
Spine1  13.8958 -5.6909 2.97641
HEad  -16.4542 4.6788 -8.17374
LeftShoulder1  9.68559 -20.7434 -33.8242
LeftArm  -36.6987 -53.9367 -9.29539
LeftForeArm  5.72586 -23.8514 -4.80259
LeftHand  -0.25398 0.0180481 5.50724
RightShoulder  3.49903 10.797 17.9117
RightArm  -3.71666 44.8103 53.0901
RightForeArm  -24.2749 44.7737 12.5608
RightHand  -4.96302 15.4572 -27.5787
LeftUpLeg  -31.8457 42.7567 -19.9134
LeftLeg  29.7477 4.57479 3.18302
LeftFoot  -3.05478 -0.0992763 1.80208
LeftToes  1.06244e-005 4.65854e-005 -8.18505e-006
